<!DOCTYPE svg PUBLIC "-//W3C//DTD SVG 1.1//EN" "http://www.w3.org/Graphics/SVG/1.1/DTD/svg11.dtd">
<!-- Uploaded to: SVG Repo, www.svgrepo.com, Transformed by: SVG Repo Mixer Tools -->
<svg height="800px" width="800px" version="1.1" id="Layer_1" xmlns="http://www.w3.org/2000/svg" xmlns:xlink="http://www.w3.org/1999/xlink" viewBox="-44.81 -44.81 537.70 537.70" xml:space="preserve" fill="#000000" transform="rotate(0)">
<g id="SVGRepo_bgCarrier" stroke-width="0" transform="translate(0,0), scale(1)">
<rect x="-44.81" y="-44.81" width="537.70" height="537.70" rx="75.278" fill="#ff7578" strokewidth="0"/>
</g>
<g id="SVGRepo_tracerCarrier" stroke-linecap="round" stroke-linejoin="round" stroke="#99adff" stroke-width="71.69264000000001"> <g transform="translate(0 -1020.36)" shape-rendering="auto" image-rendering="auto" color-rendering="auto" color-interpolation="sRGB"> <path style="fill:#3a2260;" d="M183.178,1020.36c-0.95,0.118-1.871,0.404-2.719,0.848l-31.906,16.032h-0.091 c-0.127,0.076-0.252,0.156-0.375,0.24c-0.214,0.113-0.423,0.236-0.625,0.368l-87.469,49.969 c-17.188,9.82-29.305,26.65-33.188,46.063l-26.594,133c-0.863,4.334,1.951,8.547,6.285,9.408c0.503,0.1,1.014,0.152,1.527,0.154 h79.937c3.899,0.029,7.252-2.756,7.938-6.594l6.969-38.156l9.094,68.377l-31.781,142.563c-0.956,4.314,1.766,8.586,6.08,9.543 c0.293,0.064,0.59,0.113,0.889,0.145l143.969,16.063c0.633,0.076,1.273,0.076,1.906,0l128.031-16.063 c4.378-0.6,7.44-4.635,6.841-9.014c-0.031-0.227-0.072-0.451-0.122-0.674l-31.656-142.563l9.094-68.5l6.969,38.281 c0.677,3.793,3.961,6.563,7.813,6.594h80.062c4.419-0.02,7.985-3.617,7.966-8.035c-0.002-0.514-0.054-1.023-0.154-1.527 l-26.594-133c-3.882-19.412-16-36.242-33.187-46.063l-87.531-50h-0.091c-0.271-0.177-0.553-0.338-0.844-0.48l-32-16.064 c-1.096-0.55-2.305-0.84-3.531-0.848h-80.094c-0.271-0.014-0.542-0.014-0.813,0L183.178,1020.36z"/> <path style="fill:#EE746C;" d="M185.897,1036.422h76.281l22.688,11.344l-55.875,97.814l-65.312-98.033L185.897,1036.422 L185.897,1036.422z"/> <path style="fill:#EBFEFF;" d="M149.553,1055.11l90.438,135.688v260.5l-8.031,0.992l-134.188-14.875l30-135.219 c0.212-0.932,0.255-1.895,0.127-2.842l-15.812-120c-0.509-4.389-4.48-7.535-8.869-7.025c-3.552,0.412-6.399,3.129-6.975,6.658 l-14.875,81.375H17.712l24.812-123.406c2.977-14.883,12.196-27.688,25.375-35.217l81.656-46.625L149.553,1055.11z"/> <path style="fill:#FFFFFF;" d="M298.929,1055.331l81.25,46.408c13.179,7.527,22.43,20.332,25.406,35.217l24.687,123.406H366.71 l-15-81.719c-0.966-4.313-5.245-7.023-9.557-6.057c-3.153,0.707-5.572,3.24-6.131,6.424l-15.969,120.375 c-0.128,0.947-0.085,1.91,0.126,2.844l30.125,135.344l-94.25,11.75v-260.969c-0.039-1.568-0.539-3.092-1.437-4.379l-15.688-23.623 l60-105L298.929,1055.331z"/> <g> <path style="fill:#3a2260;" d="M114.904,1292.376l-2.834,15.709l61.299,11.219c41.454,7.57,84.179,6.65,125.197-2.715 l37.441-8.502l-3.543-15.592l-37.441,8.504c-38.888,8.881-79.506,9.777-118.819,2.602l-61.299-11.221L114.904,1292.376z"/> <path style="fill:#3a2260;" d="M184.235,1307.967c-1.87,0.268-3.585,1.189-4.843,2.6l-47.953,53.268 c-2.985,3.279-2.747,8.357,0.531,11.342s8.356,2.748,11.342-0.531c0.019-0.021,0.038-0.041,0.056-0.063l33.898-37.678v58.936 c0.002,4.436,3.6,8.029,8.035,8.027c4.433-0.002,8.025-3.594,8.028-8.027v-79.961c-0.014-4.426-3.614-8.002-8.039-7.986 c-0.353,0-0.705,0.025-1.055,0.072L184.235,1307.967z"/> </g> <path style="fill:#FB9761;" d="M193.355,1047.03h61.457l18.279,9.139l-45.016,78.803l-52.62-78.98L193.355,1047.03L193.355,1047.03 z"/> </g> </g>
<g id="SVGRepo_iconCarrier"> <g transform="translate(0 -1020.36)" shape-rendering="auto" image-rendering="auto" color-rendering="auto" color-interpolation="sRGB"> <path style="fill:#3a2260;" d="M183.178,1020.36c-0.95,0.118-1.871,0.404-2.719,0.848l-31.906,16.032h-0.091 c-0.127,0.076-0.252,0.156-0.375,0.24c-0.214,0.113-0.423,0.236-0.625,0.368l-87.469,49.969 c-17.188,9.82-29.305,26.65-33.188,46.063l-26.594,133c-0.863,4.334,1.951,8.547,6.285,9.408c0.503,0.1,1.014,0.152,1.527,0.154 h79.937c3.899,0.029,7.252-2.756,7.938-6.594l6.969-38.156l9.094,68.377l-31.781,142.563c-0.956,4.314,1.766,8.586,6.08,9.543 c0.293,0.064,0.59,0.113,0.889,0.145l143.969,16.063c0.633,0.076,1.273,0.076,1.906,0l128.031-16.063 c4.378-0.6,7.44-4.635,6.841-9.014c-0.031-0.227-0.072-0.451-0.122-0.674l-31.656-142.563l9.094-68.5l6.969,38.281 c0.677,3.793,3.961,6.563,7.813,6.594h80.062c4.419-0.02,7.985-3.617,7.966-8.035c-0.002-0.514-0.054-1.023-0.154-1.527 l-26.594-133c-3.882-19.412-16-36.242-33.187-46.063l-87.531-50h-0.091c-0.271-0.177-0.553-0.338-0.844-0.48l-32-16.064 c-1.096-0.55-2.305-0.84-3.531-0.848h-80.094c-0.271-0.014-0.542-0.014-0.813,0L183.178,1020.36z"/> <path style="fill:#EE746C;" d="M185.897,1036.422h76.281l22.688,11.344l-55.875,97.814l-65.312-98.033L185.897,1036.422 L185.897,1036.422z"/> <path style="fill:#EBFEFF;" d="M149.553,1055.11l90.438,135.688v260.5l-8.031,0.992l-134.188-14.875l30-135.219 c0.212-0.932,0.255-1.895,0.127-2.842l-15.812-120c-0.509-4.389-4.48-7.535-8.869-7.025c-3.552,0.412-6.399,3.129-6.975,6.658 l-14.875,81.375H17.712l24.812-123.406c2.977-14.883,12.196-27.688,25.375-35.217l81.656-46.625L149.553,1055.11z"/> <path style="fill:#FFFFFF;" d="M298.929,1055.331l81.25,46.408c13.179,7.527,22.43,20.332,25.406,35.217l24.687,123.406H366.71 l-15-81.719c-0.966-4.313-5.245-7.023-9.557-6.057c-3.153,0.707-5.572,3.24-6.131,6.424l-15.969,120.375 c-0.128,0.947-0.085,1.91,0.126,2.844l30.125,135.344l-94.25,11.75v-260.969c-0.039-1.568-0.539-3.092-1.437-4.379l-15.688-23.623 l60-105L298.929,1055.331z"/> <g> <path style="fill:#3a2260;" d="M114.904,1292.376l-2.834,15.709l61.299,11.219c41.454,7.57,84.179,6.65,125.197-2.715 l37.441-8.502l-3.543-15.592l-37.441,8.504c-38.888,8.881-79.506,9.777-118.819,2.602l-61.299-11.221L114.904,1292.376z"/> <path style="fill:#3a2260;" d="M184.235,1307.967c-1.87,0.268-3.585,1.189-4.843,2.6l-47.953,53.268 c-2.985,3.279-2.747,8.357,0.531,11.342s8.356,2.748,11.342-0.531c0.019-0.021,0.038-0.041,0.056-0.063l33.898-37.678v58.936 c0.002,4.436,3.6,8.029,8.035,8.027c4.433-0.002,8.025-3.594,8.028-8.027v-79.961c-0.014-4.426-3.614-8.002-8.039-7.986 c-0.353,0-0.705,0.025-1.055,0.072L184.235,1307.967z"/> </g> <path style="fill:#FB9761;" d="M193.355,1047.03h61.457l18.279,9.139l-45.016,78.803l-52.62-78.98L193.355,1047.03L193.355,1047.03 z"/> </g> </g>
</svg>